<svg xmlns="http://www.w3.org/2000/svg" xmlns:xlink="http://www.w3.org/1999/xlink" width="628" height="319" viewBox="0 0 628 319">
  <defs>
    <linearGradient id="linear-gradient" x1="0.5" y1="1.021" x2="0.5" y2="-0.014" gradientUnits="objectBoundingBox">
      <stop offset="0" stop-color="#fff" stop-opacity="0"/>
      <stop offset="0.01" stop-color="#cce8fe" stop-opacity="0"/>
      <stop offset="0.231" stop-color="#cce9fe" stop-opacity="0.302"/>
      <stop offset="0.437" stop-color="#cce8fe" stop-opacity="0.553"/>
      <stop offset="0.622" stop-color="#cde9fe" stop-opacity="0.745"/>
      <stop offset="0.784" stop-color="#cce9fe" stop-opacity="0.878"/>
      <stop offset="0.915" stop-color="#cde9fe" stop-opacity="0.969"/>
      <stop offset="1" stop-color="#cce9fe"/>
    </linearGradient>
    <linearGradient id="linear-gradient-2" y1="0.269" x2="1.009" y2="0.3" gradientUnits="objectBoundingBox">
      <stop offset="0" stop-color="#fff" stop-opacity="0"/>
      <stop offset="0.054" stop-color="#fff"/>
      <stop offset="0.946" stop-color="#fafafa"/>
      <stop offset="1" stop-color="#fafafa" stop-opacity="0"/>
    </linearGradient>
    <radialGradient id="radial-gradient" cx="0.5" cy="0.5" r="0.5" gradientTransform="translate(0 -0.485) scale(1 1.969)" gradientUnits="objectBoundingBox">
      <stop offset="0" stop-color="#e3ecfc" stop-opacity="0"/>
      <stop offset="0.936" stop-color="#e3ecfc" stop-opacity="0"/>
      <stop offset="1" stop-color="#eaf2ff"/>
    </radialGradient>
  </defs>
  <g id="Group_4149" data-name="Group 4149" transform="translate(-1794.353 70.682)">
    <g id="Group_4144" data-name="Group 4144" transform="translate(723 -224.21)">
      <g id="Group_197" data-name="Group 197" transform="translate(1071.353 171.076)" style="isolation: isolate">
        <path id="Path_322" data-name="Path 322" d="M1166.894,312.843V495.216H542.589V267.885c28.37,0,28.37,44.958,56.743,44.958s28.387-93.125,56.76-93.125,28.37,155.745,56.76,155.745c28.37,0,28.37-107.577,56.743-107.577s28.37,72.256,56.743,72.256,28.387-30.508,56.76-30.508,28.37,43.351,56.76,43.351c28.37,0,28.37-44.152,56.756-44.152s28.373,101.956,56.746,101.956,28.387-185.451,56.774-185.451S1138.507,312.843,1166.894,312.843Z" transform="translate(-540.982 -211.313)" stroke="rgba(0,0,0,0)" stroke-width="1" fill="url(#linear-gradient)" style="mix-blend-mode: overlay;isolation: isolate"/>
        <path id="Path_323" data-name="Path 323" d="M1054.5,413.536c-15.406,0-22.458-25.333-29.917-52.154-6.817-24.486-13.862-49.805-26.825-49.805-13.323,0-19.984,10.369-27.039,21.345-7.207,11.215-14.664,22.81-29.724,22.81s-22.517-11.391-29.731-22.406c-7.048-10.773-13.71-20.945-27.025-20.945-13.485,0-20.143,7.159-27.2,14.736-7.214,7.753-14.67,15.769-29.565,15.769-15.282,0-22.7-18.882-29.866-37.146-6.779-17.258-13.786-35.107-26.877-35.107-12.95,0-20,26.735-26.822,52.593-7.456,28.276-14.5,54.984-29.921,54.984-15.537,0-22.548-38.476-29.969-79.208-6.537-35.878-13.948-76.54-26.791-76.54-12.994,0-20.032,23.09-26.836,45.417-7.477,24.534-14.539,47.711-29.924,47.711-15.071,0-22.524-11.809-29.731-23.229-7.052-11.174-13.713-21.729-27.012-21.729a1.607,1.607,0,0,1,0-3.213c15.071,0,22.52,11.809,29.728,23.229,7.052,11.174,13.713,21.732,27.015,21.732,13.005,0,20.047-23.1,26.853-45.438,7.473-24.524,14.532-47.69,29.907-47.69,15.524,0,22.531,38.458,29.948,79.173C693.722,334.321,701.137,375,713.993,375c12.946,0,20-26.739,26.818-52.593,7.456-28.276,14.5-54.988,29.925-54.988,15.278,0,22.693,18.885,29.866,37.149,6.775,17.258,13.786,35.107,26.877,35.107,13.5,0,20.16-7.162,27.212-14.746,7.211-7.75,14.663-15.762,29.548-15.762,15.05,0,22.506,11.388,29.713,22.4,7.055,10.776,13.717,20.955,27.043,20.955,13.309,0,19.971-10.365,27.022-21.335,7.211-11.219,14.667-22.821,29.742-22.821,15.4,0,22.455,25.333,29.917,52.151,6.814,24.49,13.859,49.808,26.825,49.808,12.815,0,20.243-48.54,26.8-91.366,8.7-56.833,15.486-94.089,29.973-94.089,15.351,0,22.748,22.8,29.9,44.857,6.8,20.969,13.834,42.653,26.864,42.653a1.6,1.6,0,1,1,0,3.21c-15.365,0-22.762-22.81-29.917-44.871-6.8-20.962-13.824-42.636-26.843-42.636-12.815,0-20.243,48.537-26.8,91.363C1075.775,376.279,1068.989,413.536,1054.5,413.536Z" transform="translate(-542.124 -212.455)" fill="url(#linear-gradient-2)"/>
        <g id="Group_196" data-name="Group 196" transform="translate(42.404)">
          <path id="Path_325" data-name="Path 325" d="M573.532,252.057a9.568,9.568,0,1,1-9.568-9.568A9.567,9.567,0,0,1,573.532,252.057Z" transform="translate(-554.397 -151.595)" fill="#4d91f7"/>
          <path id="Path_334" data-name="Path 334" d="M573.532,252.057a9.568,9.568,0,1,1-9.568-9.568A9.567,9.567,0,0,1,573.532,252.057Z" transform="translate(-492.206 -242.489)" fill="#4d91f7"/>
          <path id="Path_335" data-name="Path 335" d="M573.532,252.057a9.568,9.568,0,1,1-9.568-9.568A9.567,9.567,0,0,1,573.532,252.057Z" transform="translate(-433.842 -89.389)" fill="#4d91f7"/>
          <path id="Path_336" data-name="Path 336" d="M573.532,252.057a9.568,9.568,0,1,1-9.568-9.568A9.567,9.567,0,0,1,573.532,252.057Z" transform="translate(-376.808 -195.056)" fill="#4d91f7"/>
          <path id="Path_337" data-name="Path 337" d="M573.532,252.057a9.568,9.568,0,1,1-9.568-9.568A9.567,9.567,0,0,1,573.532,252.057Z" transform="translate(-317.488 -122.341)" fill="#4d91f7"/>
          <path id="Path_338" data-name="Path 338" d="M573.532,252.057a9.568,9.568,0,1,1-9.568-9.568A9.567,9.567,0,0,1,573.532,252.057Z" transform="translate(-261.037 -151.595)" fill="#4d91f7"/>
          <path id="Path_339" data-name="Path 339" d="M573.532,252.057a9.568,9.568,0,1,1-9.568-9.568A9.567,9.567,0,0,1,573.532,252.057Z" transform="translate(-150.051 -151.595)" fill="#4d91f7"/>
          <path id="Path_340" data-name="Path 340" d="M573.532,252.057a9.568,9.568,0,1,1-9.568-9.568A9.567,9.567,0,0,1,573.532,252.057Z" transform="translate(-205.544 -108.522)" fill="#4d91f7"/>
          <path id="Path_341" data-name="Path 341" d="M573.532,252.057a9.568,9.568,0,1,1-9.568-9.568A9.567,9.567,0,0,1,573.532,252.057Z" transform="translate(-93.601 -52.072)" fill="#4d91f7"/>
          <path id="Path_342" data-name="Path 342" d="M573.532,252.057a9.568,9.568,0,1,1-9.568-9.568A9.567,9.567,0,0,1,573.532,252.057Z" transform="translate(-38.108 -237.687)" fill="#4d91f7"/>
        </g>
      </g>
      <rect id="Rectangle_158" data-name="Rectangle 158" width="628" height="319" transform="translate(1071.353 153.528)" fill="url(#radial-gradient)"/>
    </g>
  </g>
</svg>
